<svg viewBox="0 0 370 370" xmlns="http://www.w3.org/2000/svg" data-name="Layer 1" id="Layer_1">
  <defs>
    <style>
      .cls-1 {
        fill: #f8fcff;
        stroke: #1e1e1e;
        stroke-miterlimit: 10;
        stroke-width: 3px;
      }

      .cls-2 {
        fill: #1e1e1e;
      }

      .cls-2, .cls-3 {
        stroke-width: 0px;
      }

      .cls-3 {
        fill: #c3d8ea;
      }
    </style>
  </defs>
  <g>
    <circle r="180.21" cy="185" cx="185" class="cls-3"></circle>
    <circle r="150.93" cy="185" cx="185" class="cls-1"></circle>
  </g>
  <g data-name="107" id="_107">
    <path d="M242.83,203.21c.98,1.47,2.45,2.45,4.4,2.45,2.45,0,4.4-1.47,4.89-3.91,3.91-22.5-1.96-48.42-17.61-65.54-1.47-1.47-3.42-1.96-5.38-1.47-1.96.49-2.93,2.45-3.42,4.4-1.47,16.63-12.72,30.33-26.9,35.71-2.45.98-3.42,3.42-2.93,5.87.49,2.45,2.93,3.91,5.38,3.42,5.38-.98,10.76-.49,16.63.98,10.27,1.96,19.08,8.8,24.95,18.1h0ZM217.4,174.35c7.34-6.36,12.72-14.18,16.14-23.48,6.36,10.76,9.78,24.46,9.78,37.17-6.85-6.85-15.65-11.74-25.92-13.7Z" class="cls-2"></path>
    <path d="M205.66,280v22.5c0,2.93,1.96,4.89,4.89,4.89s4.89-1.96,4.89-4.89v-22.5c0-14.67,4.4-27.88,12.23-37.66,5.38-6.85,7.34-15.65,5.38-24.46-2.45-9.29-9.78-16.63-19.08-19.08-6.36-1.47-12.72-.98-18.59,1.47-5.87,2.93-12.72,2.93-19.08,0-5.87-2.93-12.23-3.42-18.59-1.47-9.29,2.45-16.63,9.78-19.08,19.08-1.96,7.83-.49,16.14,3.91,22.5,8.8,12.72,13.7,25.92,13.7,39.13v22.99c0,2.93,1.96,4.89,4.89,4.89s4.89-1.96,4.89-4.89v-22.99c0-15.16-5.38-29.84-15.16-44.51-2.93-4.4-3.91-9.29-2.45-14.67,1.47-5.87,6.36-10.27,11.74-11.74,4.4-.98,8.32-.98,12.23.98.49,0,.98.49,1.47.49,5.87,2.45,9.78,5.87,12.23,10.27.98,2.45,3.91,3.42,6.36,2.45,2.45-.98,3.42-3.91,2.45-6.36-.98-1.47-1.47-2.93-2.93-4.4,2.45-.49,4.89-1.47,7.34-2.45,3.91-1.96,7.83-1.96,12.23-.98,5.87,1.47,10.27,6.36,11.74,11.74,1.47,5.38.49,11.25-3.42,15.65-8.8,11.25-14.18,26.9-14.18,44.02h0Z" class="cls-2"></path>
    <path d="M160.17,222.28c-2.45,1.47-2.93,4.4-.98,6.85,8.8,12.72,14.67,26.41,16.14,39.62.49,2.45,2.45,4.4,4.89,4.4,2.93,0,5.38-2.45,4.89-5.38-1.96-15.16-8.32-29.84-18.1-44.02-1.47-2.45-4.4-2.93-6.85-1.47h0Z" class="cls-2"></path>
    <path d="M109.79,131.79c10.27,10.27,16.63,22.99,18.1,35.22.98,8.8,5.87,16.14,13.7,21.03,8.32,4.89,18.59,4.89,26.9,0,5.87-3.42,9.78-8.32,12.23-14.18,2.45-6.36,6.85-11.25,13.21-13.21,5.87-1.96,11.25-6.36,14.67-12.23,4.89-8.32,4.89-18.59,0-26.9-4.4-6.85-10.76-11.74-18.59-13.21-15.65-2.93-27.88-8.8-37.17-18.1l-16.14-16.14c-1.96-1.96-4.89-1.96-6.85,0-1.96,1.96-1.96,4.89,0,6.85l16.14,16.14c10.76,10.76,24.95,17.61,42.06,20.54,4.89.98,9.29,3.91,11.74,8.32,2.93,4.89,2.93,11.74,0,16.63-1.96,3.91-5.38,6.36-9.29,7.83-.49,0-.98.49-1.47.49-3.91,1.47-10.27,2.93-16.14.98-2.45-.98-5.38.49-6.36,2.93s.49,5.38,2.93,6.36c1.47.49,3.42.98,5.38,1.47-1.96,2.93-3.42,5.38-4.4,7.83-1.47,3.91-3.91,6.85-7.83,9.29-4.89,2.93-11.74,2.93-16.63,0-4.89-2.93-8.32-7.83-8.8-13.21-1.47-14.67-8.8-29.35-21.03-41.58l-15.65-16.14c-1.96-1.96-4.89-1.96-6.85,0-1.96,1.96-1.96,4.89,0,6.85l16.14,16.14Z" class="cls-2"></path>
    <path d="M224.25,109.78c2.45,0,4.4-1.47,4.89-3.91l3.91-16.63c.49-2.45-.98-5.38-3.42-5.87-2.93-.98-5.38.98-5.87,3.42l-4.4,16.63c-.49,3.42,1.96,6.36,4.89,6.36h0Z" class="cls-2"></path>
    <path d="M254.08,100l-10.27,10.27c-1.96,1.96-1.96,4.89,0,6.85s4.89,1.96,6.85,0l10.76-10.27c1.96-1.96,1.96-4.89,0-6.85s-5.38-1.96-7.34,0h0Z" class="cls-2"></path>
    <path d="M251.64,138.15c.49,2.45,3.42,4.4,5.87,3.42l16.63-3.91c2.45-.49,4.4-3.42,3.42-5.87-.98-2.45-3.42-4.4-5.87-3.42l-16.63,3.91c-2.45.49-3.91,2.93-3.42,5.87Z" class="cls-2"></path>
  </g>
</svg>