<svg viewBox="0 0 370 370" xmlns="http://www.w3.org/2000/svg" data-name="Layer 1" id="Layer_1">
  <defs>
    <style>
      .cls-1 {
        fill: #fff6ee;
        stroke: #1e1e1e;
        stroke-miterlimit: 10;
        stroke-width: 3px;
      }

      .cls-2 {
        fill: #ffe0c2;
      }

      .cls-2, .cls-3 {
        stroke-width: 0px;
      }

      .cls-3 {
        fill: #1e1e1e;
      }
    </style>
  </defs>
  <circle r="180.21" cy="185" cx="185" class="cls-2"></circle>
  <circle r="150.93" cy="185" cx="185" class="cls-1"></circle>
  <g data-name="Immune System" id="Immune_System">
    <path d="M185,311.67c-.78,0-1.55-.21-2.22-.61l-10.99-6.59c-50.49-30.49-81.42-85.11-81.58-144.1v-51.21c0-2.38,1.93-4.31,4.31-4.31,16.65-.02,30.14-13.51,30.16-30.16,0-2.38,1.93-4.31,4.31-4.31h112.03c2.38,0,4.31,1.93,4.31,4.31.02,16.65,13.51,30.14,30.16,30.16,2.38,0,4.31,1.93,4.31,4.31v51.21c-.17,58.98-31.09,113.6-81.58,144.09l-10.99,6.59c-.67.4-1.44.61-2.22.62ZM98.83,113.22v47.14c.16,55.96,29.5,107.78,77.4,136.71l8.77,5.26,8.77-5.26c47.9-28.93,77.24-80.75,77.4-136.71v-47.14c-17.99-2.04-32.19-16.24-34.23-34.23h-103.88c-2.04,17.99-16.24,32.19-34.23,34.23Z" class="cls-3"></path>
    <path d="M185,291.57c-.78,0-1.54-.21-2.21-.61l-2.12-1.27h0c-45.31-27.37-73.06-76.39-73.22-129.32v-36.93c0-1.82,1.15-3.45,2.87-4.06,13.46-4.84,24.06-15.44,28.89-28.9.61-1.72,2.24-2.87,4.06-2.87h83.46c1.82,0,3.45,1.15,4.06,2.87,4.84,13.46,15.44,24.06,28.89,28.89,1.72.61,2.87,2.24,2.87,4.06v36.93c-.15,52.93-27.91,101.95-73.22,129.32l-2.13,1.27c-.67.4-1.43.61-2.21.61ZM116.06,126.39v33.98c.14,49.87,26.27,96.06,68.94,121.87,42.67-25.81,68.8-72,68.94-121.87v-33.98c-13.59-5.75-24.41-16.57-30.16-30.16h-77.56c-5.75,13.59-16.57,24.41-30.16,30.16Z" class="cls-3"></path>
    <path d="M193.62,216.87h-17.23c-2.38,0-4.31-1.93-4.31-4.31v-21.54h-21.54c-2.38,0-4.31-1.93-4.31-4.31v-17.23c0-2.38,1.93-4.31,4.31-4.31h21.54v-21.54c0-2.38,1.93-4.31,4.31-4.31h17.23c2.38,0,4.31,1.93,4.31,4.31v21.54h21.54c2.38,0,4.31,1.93,4.31,4.31v17.23c0,2.38-1.93,4.31-4.31,4.31h-21.54v21.54c0,2.38-1.93,4.31-4.31,4.31ZM180.69,208.26h8.62v-21.54c0-2.38,1.93-4.31,4.31-4.31h21.54v-8.62h-21.54c-2.38,0-4.31-1.93-4.31-4.31v-21.54h-8.62v21.54c0,2.38-1.93,4.31-4.31,4.31h-21.54v8.62h21.54c2.38,0,4.31,1.93,4.31,4.31v21.54Z" class="cls-3"></path>
  </g>
</svg>