<svg viewBox="0 0 370 370" xmlns="http://www.w3.org/2000/svg" data-name="Layer 1" id="Layer_1">
  <defs>
    <style>
      .cls-1 {
        fill: #b9e8ed;
      }

      .cls-1, .cls-2 {
        stroke-width: 0px;
      }

      .cls-3 {
        fill: #f3feff;
        stroke: #1e1e1e;
        stroke-miterlimit: 10;
        stroke-width: 3px;
      }

      .cls-2 {
        fill: #1e1e1e;
      }
    </style>
  </defs>
  <g>
    <circle r="180.21" cy="185" cx="185" class="cls-1"></circle>
    <circle r="150.93" cy="185" cx="185" class="cls-3"></circle>
  </g>
  <g data-name="76 Glucometer" id="_76_Glucometer">
    <g>
      <path d="M232.06,219.39c-4.82,7.82-14.56,13.85-22.14,9.17-6.59-4.07-7.39-14.8-1.74-23.91,5.62-9.11,15.55-13.24,22.14-9.17,7.56,4.65,6.59,16.07,1.74,23.9Z" class="cls-2"></path>
      <path d="M246.64,82.19h-123.27c-8.81,0-15.98,7.17-15.98,16v87.16c0,38.08,27.54,69.8,63.75,76.37v34.03c0,3.38,2.76,6.12,6.14,6.12h15.46c3.38,0,6.12-2.73,6.12-6.12v-34.03c36.22-6.57,63.77-38.29,63.77-76.37v-87.16c0-8.83-7.17-16-15.98-16h0ZM136.18,86.5h97.64v81.19c0,3.53-2.89,6.42-6.42,6.42h-84.81c-3.55,0-6.42-2.89-6.42-6.42v-81.19ZM194.54,295.74c0,.99-.8,1.81-1.81,1.81h-15.46c-1.01,0-1.83-.82-1.83-1.81v-21.36h19.1v21.36ZM194.54,270.07h-19.1v-14.69h19.1v14.69ZM194.54,251.07h-19.1v-10.16h19.1v10.16ZM258.31,185.35c0,35.69-25.63,65.47-59.46,71.97v-16.41h2.37c1.21,0,2.15-.95,2.15-2.15s-.95-2.15-2.15-2.15h-32.45c-1.18,0-2.15.97-2.15,2.15s.97,2.15,2.15,2.15h2.37v16.43c-33.81-6.5-59.44-36.29-59.44-71.99v-87.16c0-6.46,5.23-11.69,11.67-11.69h8.51v81.19c0,5.92,4.8,10.73,10.73,10.73h84.81c5.92,0,10.73-4.8,10.73-10.73v-81.19h8.51c6.44,0,11.67,5.23,11.67,11.69v87.16h0Z" class="cls-2"></path>
      <path d="M160.08,228.57c-7.47,4.61-17.23-1.21-22.14-9.17-4.82-7.84-5.84-19.23,1.74-23.9,6.59-4.07,16.52.06,22.14,9.17,5.62,9.11,4.85,19.83-1.74,23.91Z" class="cls-2"></path>
      <path d="M217.26,95.54h-64.52c-3.62,0-6.57,2.95-6.57,6.57v56.38c0,3.62,2.95,6.57,6.57,6.57h64.52c3.62,0,6.57-2.95,6.57-6.57v-56.38c0-3.62-2.95-6.57-6.57-6.57ZM185,152.65c-8.87,0-16.09-7.21-16.09-16.09,0-8.16,12.88-25.78,14.36-27.76.8-1.1,2.63-1.1,3.45,0,1.46,1.98,14.36,19.6,14.36,27.76,0,8.87-7.21,16.09-16.09,16.09h0Z" class="cls-2"></path>
      <path d="M196.78,136.57c0,6.5-5.28,11.78-11.78,11.78s-11.78-5.28-11.78-11.78c0-4.97,7.39-16.54,11.78-22.79,4.39,6.25,11.78,17.81,11.78,22.79Z" class="cls-2"></path>
    </g>
  </g>
</svg>