<svg viewBox="0 0 370 370" xmlns="http://www.w3.org/2000/svg" data-name="Layer 1" id="Layer_1">
  <defs>
    <style>
      .cls-1 {
        fill: #fbf8ff;
        stroke: #1e1e1e;
        stroke-miterlimit: 10;
        stroke-width: 3px;
      }

      .cls-2 {
        fill: #ecdcff;
      }

      .cls-2, .cls-3 {
        stroke-width: 0px;
      }

      .cls-3 {
        fill: #1e1e1e;
      }
    </style>
  </defs>
  <g>
    <circle r="180.21" cy="185" cx="185" class="cls-2"></circle>
    <circle r="150.93" cy="185" cx="185" class="cls-1"></circle>
  </g>
  <path d="M243.58,201.65c32.3-32.29,32.3-84.84,0-117.13-32.3-32.29-84.86-32.29-117.16,0-32.3,32.29-32.3,84.84,0,117.13,13.67,13.67,30.98,21.55,48.84,23.65v27.73h-19.49c-5.38,0-9.75,4.36-9.75,9.74s4.36,9.74,9.75,9.74h19.49v27.45c0,5.38,4.36,9.74,9.75,9.74s9.75-4.36,9.75-9.74v-27.45h19.49c5.38,0,9.75-4.36,9.75-9.74s-4.36-9.74-9.75-9.74h-19.49v-27.73c17.86-2.1,35.16-9.98,48.84-23.65ZM140.2,187.87c-24.7-24.69-24.7-64.87,0-89.57,24.7-24.69,64.89-24.69,89.6,0,24.7,24.69,24.7,64.87,0,89.57-24.7,24.69-64.89,24.69-89.6,0Z" class="cls-3"></path>
</svg>