<svg viewBox="0 0 370 370" xmlns="http://www.w3.org/2000/svg" data-name="Layer 1" id="Layer_1">
  <defs>
    <style>
      .cls-1 {
        fill: #e8e8b8;
      }

      .cls-1, .cls-2 {
        stroke-width: 0px;
      }

      .cls-2 {
        fill: #1e1e1e;
      }

      .cls-3 {
        fill: #fffff5;
        stroke: #1e1e1e;
        stroke-miterlimit: 10;
        stroke-width: 3px;
      }
    </style>
  </defs>
  <g>
    <circle r="180.21" cy="185" cx="185" class="cls-1"></circle>
    <circle r="150.93" cy="185" cx="185" class="cls-3"></circle>
  </g>
  <g>
    <path d="M195.07,183.59c-2.05-1.26-4.74-.61-6,1.44-.49.79-2.1,1.64-4.14,1.64s-3.58-.8-4.11-1.59c-1.35-2-4.06-2.53-6.05-1.18-2,1.35-2.52,4.06-1.18,6.05,2.26,3.35,6.61,5.43,11.34,5.43s9.39-2.22,11.58-5.81c1.26-2.05.61-4.74-1.44-6Z" class="cls-2"></path>
    <path d="M212.53,171.81h0c-2.89,2.17-3.48,6.27-1.31,9.16,1.29,1.71,3.25,2.62,5.24,2.62,1.37,0,2.74-.43,3.92-1.31,2.89-2.17,3.48-6.27,1.31-9.16-2.17-2.89-6.27-3.48-9.16-1.31Z" class="cls-2"></path>
    <path d="M149.62,171.81h0c-2.89,2.17-3.48,6.27-1.31,9.16,1.29,1.71,3.25,2.62,5.24,2.62,1.37,0,2.74-.43,3.92-1.31,2.89-2.17,3.48-6.27,1.31-9.16-2.17-2.89-6.27-3.48-9.16-1.31Z" class="cls-2"></path>
    <path d="M272.74,151.66v-5.34c0-19.68-7.71-38.22-21.72-52.23-14.01-14.01-32.55-21.72-52.23-21.72h-27.59c-17.65,0-34.77,6.39-48.2,17.98-1.82,1.57-2.03,4.33-.45,6.15,1.57,1.82,4.33,2.03,6.15.45,11.85-10.23,26.95-15.86,42.5-15.86h27.59c35.97,0,65.23,29.26,65.23,65.23v3.47h-11.28c-20.54,0-34.85-9.19-34.85-17.45,0-2.41-1.95-4.36-4.36-4.36s-4.36,1.95-4.36,4.36c0,8.25-14.31,17.45-34.85,17.45h-68.34v-3.47c0-6.26.9-12.46,2.68-18.44.69-2.31-.63-4.74-2.94-5.42-2.31-.69-4.74.63-5.42,2.94-2.02,6.79-3.04,13.82-3.04,20.92v5.34c-7.4,3.34-12.57,10.78-12.57,19.42,0,11.74,9.55,21.29,21.29,21.29h8.22c4.74,11.84,13.03,22.16,23.71,29.91-11.01,11.87-17.24,27.54-17.24,43.72v25.31c0,2.41,1.95,4.36,4.36,4.36h25.07s0,0,0,0,0,0,0,0h94.85c2.41,0,4.36-1.95,4.36-4.36v-25.31c0-16.18-6.23-31.85-17.24-43.72,10.68-7.75,18.97-18.07,23.71-29.91h8.22c11.74,0,21.29-9.55,21.29-21.29,0-8.63-5.17-16.08-12.57-19.42ZM105.98,183.65c-6.93,0-12.57-5.64-12.57-12.57s5.64-12.57,12.57-12.57h3.78v10.9c0,4.88.58,9.64,1.67,14.24h-5.46ZM129.39,276.05h16.36v10.9h-16.36v-10.9ZM224.25,286.95v-10.9h16.36v10.9h-16.36ZM240.61,266v1.33h-16.36v-5.77c0-2.41-1.95-4.36-4.36-4.36s-4.36,1.95-4.36,4.36v25.4h-61.06v-25.4c0-2.41-1.95-4.36-4.36-4.36s-4.36,1.95-4.36,4.36v5.77h-16.36v-1.33c0-14.5,5.8-28.54,16.01-38.93,5.57,3.12,11.62,5.6,18.03,7.34.32,11.63,9.87,20.99,21.57,20.99s21.25-9.36,21.57-20.99c6.41-1.73,12.46-4.22,18.03-7.34,10.2,10.39,16.01,24.42,16.01,38.93ZM172.38,236.3c4.11.63,8.32.96,12.62.96s8.52-.33,12.62-.96c-1.16,5.91-6.38,10.38-12.62,10.38s-11.46-4.47-12.62-10.38ZM185,228.53c-36.67,0-66.51-26.52-66.51-59.12v-10.9h55.84c17.45,0,32.21-5.87,39.21-14.57,6.84,8.49,21.07,14.29,37.98,14.55v10.92c0,32.6-29.84,59.12-66.51,59.12ZM264.02,183.65h-5.46c1.09-4.59,1.67-9.36,1.67-14.24v-10.9s3.78,0,3.78,0c6.93,0,12.57,5.64,12.57,12.57s-5.64,12.57-12.57,12.57Z" class="cls-2"></path>
    <path d="M195.9,266.38h-21.81c-2.41,0-4.36,1.95-4.36,4.36s1.95,4.36,4.36,4.36h21.81c2.41,0,4.36-1.95,4.36-4.36s-1.95-4.36-4.36-4.36Z" class="cls-2"></path>
    <path d="M112.72,113.09c2.41,0,4.36-1.95,4.36-4.36s-1.95-4.36-4.36-4.36h0c-2.41,0-4.36,1.95-4.36,4.36s1.95,4.36,4.36,4.36Z" class="cls-2"></path>
  </g>
</svg>