<svg viewBox="0 0 370 370" xmlns="http://www.w3.org/2000/svg" data-name="Layer 1" id="Layer_1">
  <defs>
    <style>
      .cls-1 {
        fill: #ffc0c0;
      }

      .cls-1, .cls-2 {
        stroke-width: 0px;
      }

      .cls-2 {
        fill: #1e1e1e;
      }

      .cls-3 {
        fill: #fff5f5;
        stroke: #1e1e1e;
        stroke-miterlimit: 10;
        stroke-width: 3px;
      }
    </style>
  </defs>
  <g>
    <circle r="180.21" cy="185" cx="185" class="cls-1"></circle>
    <circle r="150.93" cy="185" cx="185" class="cls-3"></circle>
  </g>
  <path d="M185.01,300.71c-.98,0-1.94-.23-2.81-.68-.66-.33-16.29-8.34-36.71-23.19-18.85-13.73-45.46-36.12-65.09-64.93-2.88-4.21-5.47-8.6-7.76-13.16-.96-1.92-.86-4.2.27-6.02,1.13-1.83,3.12-2.94,5.26-2.94h39.8l10.09-14.44c1.96-2.8,5.81-3.49,8.62-1.54.81.57,1.48,1.32,1.94,2.2l12.1,23.1,20.36-43.6c1.44-3.1,5.12-4.44,8.22-3,1.75.82,3.03,2.4,3.44,4.3l12.71,57.84,17.92-38.36c1.44-3.1,5.13-4.44,8.22-2.99,1.23.57,2.24,1.53,2.86,2.74l13.18,25.16,6.1-8.75c1.16-1.66,3.05-2.64,5.07-2.64h39.12c11.79-26.28,8.13-52.45-10.09-70.59-20.82-20.73-54.7-20.73-75.52,0-3.53,3.51-7.98,7.68-12.69,12.09l-.39.36c-2.38,2.23-6.08,2.23-8.46,0l-.41-.38c-4.71-4.43-9.15-8.55-12.67-12.08-20.82-20.73-54.7-20.73-75.52,0-13.78,13.71-19.39,32.27-15.85,52.24.6,3.36-1.64,6.58-5,7.18-3.36.6-6.58-1.64-7.18-5.01,0,0,0,0,0,0-2.12-11.92-1.52-23.47,1.8-34.34,3.35-10.92,9.36-20.83,17.5-28.84,25.64-25.52,67.35-25.52,92.99,0,2.44,2.43,5.39,5.23,8.57,8.23,3.18-2.99,6.13-5.78,8.58-8.23,25.63-25.52,67.35-25.52,92.98,0,11.02,10.85,18.05,25.09,19.97,40.43,1.94,15.45-1.24,32.01-9.16,47.88-1.07,2.15-3.3,3.48-5.7,3.42h-39.63l-10.09,14.44c-1.94,2.81-5.8,3.51-8.61,1.57-.82-.57-1.49-1.32-1.96-2.21l-12.1-23.1-20.36,43.58c-1.45,3.09-5.13,4.43-8.23,2.98-1.74-.82-3-2.39-3.42-4.27l-12.71-57.84-17.92,38.36c-1.45,3.1-5.13,4.43-8.23,2.99-1.23-.57-2.23-1.53-2.86-2.73l-13.18-25.16-6.11,8.74c-1.16,1.66-3.05,2.64-5.07,2.64h-32.41c.59.93,1.2,1.85,1.82,2.76,18.58,27.26,43.95,48.63,61.97,61.78,10.37,7.59,21.2,14.54,32.42,20.81,11.31-6.24,54.39-31.54,85.56-70.62,2.07-2.72,5.96-3.24,8.67-1.16,2.72,2.07,3.24,5.96,1.16,8.67-.05.07-.11.14-.16.21-19.73,24.75-43.77,43.91-60.46,55.63-18.09,12.71-31.4,19.52-31.96,19.8-.87.44-1.83.67-2.81.66h0Z" class="cls-2"></path>
</svg>