<svg viewBox="0 0 370 370" xmlns="http://www.w3.org/2000/svg" data-name="Layer 1" id="Layer_1">
  <defs>
    <style>
      .cls-1 {
        fill: #f5f5ff;
        stroke: #1e1e1e;
        stroke-miterlimit: 10;
        stroke-width: 3px;
      }

      .cls-2 {
        fill: #e1e1ff;
      }

      .cls-2, .cls-3 {
        stroke-width: 0px;
      }

      .cls-3 {
        fill: #1e1e1e;
      }
    </style>
  </defs>
  <g>
    <circle r="180.21" cy="185" cx="185" class="cls-2"></circle>
    <circle r="150.93" cy="185" cx="185" class="cls-1"></circle>
  </g>
  <g>
    <path d="M311.36,204.64c-26-45.14-74.27-72.8-126.36-72.4-52.09-.4-100.36,27.26-126.36,72.4-.68,1.27-.68,2.8,0,4.08,26,45.14,74.27,72.8,126.36,72.4,52.09.4,100.36-27.26,126.36-72.4.68-1.27.68-2.8,0-4.08ZM185,272.05c-47.85.4-92.37-24.45-117.16-65.38,24.79-40.93,69.31-65.77,117.16-65.38,47.85-.4,92.37,24.45,117.16,65.38-24.79,40.93-69.31,65.77-117.16,65.38Z" class="cls-3"></path>
    <path d="M185,152.31c-30.03,0-54.37,24.34-54.37,54.37,0,30.03,24.34,54.37,54.37,54.37,30.03,0,54.37-24.34,54.37-54.37h0c-.02-30.02-24.35-54.34-54.37-54.37ZM185,233.86c-15.01,0-27.18-12.17-27.18-27.18,0-15.01,12.17-27.18,27.18-27.18,15.01,0,27.18,12.17,27.18,27.18h0c-.01,15.01-12.18,27.17-27.18,27.18Z" class="cls-3"></path>
    <circle r="18.12" cy="206.68" cx="185" class="cls-3"></circle>
    <path d="M185,120.6c2.5,0,4.53-2.03,4.53-4.53h0v-22.66c0-2.5-2.03-4.53-4.53-4.53s-4.53,2.03-4.53,4.53v22.65c0,2.5,2.03,4.53,4.53,4.53h0Z" class="cls-3"></path>
    <path d="M104.36,132.38c1.5,2,4.34,2.41,6.34.9,2-1.5,2.41-4.34.9-6.34h0l-13.59-18.12c-1.54-1.97-4.39-2.32-6.36-.78-1.92,1.5-2.31,4.24-.89,6.22l13.59,18.12Z" class="cls-3"></path>
    <path d="M262.02,134.19c1.43,0,2.77-.67,3.63-1.81l13.59-18.12c1.46-2.03,1-4.86-1.03-6.32-1.97-1.42-4.72-1.03-6.22.89l-13.59,18.12c-1.49,2.03-1.04,4.89.99,6.37.76.56,1.68.86,2.63.88Z" class="cls-3"></path>
  </g>
</svg>