<svg viewBox="0 0 370 370" xmlns="http://www.w3.org/2000/svg" data-name="Layer 1" id="Layer_1">
  <defs>
    <style>
      .cls-1 {
        fill: #c3edd4;
      }

      .cls-1, .cls-2 {
        stroke-width: 0px;
      }

      .cls-3 {
        fill: #f3fff8;
        stroke: #1e1e1e;
        stroke-miterlimit: 10;
        stroke-width: 3px;
      }

      .cls-2 {
        fill: #1e1e1e;
      }
    </style>
  </defs>
  <g>
    <circle r="180.21" cy="185" cx="185" class="cls-1"></circle>
    <circle r="150.93" cy="185" cx="185" class="cls-3"></circle>
  </g>
  <g id="Page-1">
    <g data-name="014---Scales" id="_014---Scales">
      <path d="M272.21,96.81c-4.11-4.11-8.92-7.44-14.21-9.83-5.29-2.41-10.98-3.83-16.78-4.17-15.79-.98-35.76-1.51-56.21-1.51s-40.41.54-56.24,1.51c-5.79.35-11.47,1.76-16.74,4.17-16.23,7.35-27.09,23.04-28.23,40.82-.98,15.82-1.51,35.78-1.51,56.23s.54,40.42,1.51,56.23c1.14,17.78,12,33.47,28.22,40.81,5.29,2.41,10.98,3.83,16.78,4.17,15.81.98,35.76,1.51,56.21,1.51s40.42-.54,56.24-1.51c5.79-.35,11.47-1.76,16.75-4.17,16.23-7.34,27.08-23.04,28.23-40.81.98-15.81,1.51-35.78,1.51-56.23s-.54-40.41-1.51-56.22c-.73-11.69-5.72-22.71-14.01-30.98h0ZM279.38,239.84c-.99,15.25-10.31,28.71-24.24,35-4.52,2.06-9.37,3.27-14.33,3.56-15.68.97-35.5,1.5-55.82,1.5s-40.14-.53-55.82-1.5c-4.96-.3-9.82-1.51-14.33-3.57-13.92-6.3-23.24-19.75-24.23-35-.97-15.68-1.5-35.5-1.5-55.82s.53-40.14,1.5-55.82c.99-15.25,10.31-28.71,24.24-35,4.52-2.06,9.37-3.27,14.33-3.56,15.68-.97,35.5-1.5,55.82-1.5s40.14.53,55.82,1.5c4.96.3,9.82,1.51,14.33,3.57,13.92,6.3,23.24,19.75,24.23,35,.97,15.68,1.5,35.5,1.5,55.82s-.53,40.14-1.5,55.82h0Z" class="cls-2" id="Shape"></path>
      <path d="M239.96,103.31c13.83.86,24.87,11.88,25.75,25.71.11,1.81,1.61,3.22,3.42,3.22h.21c1.89-.11,3.33-1.74,3.21-3.62-1.09-17.28-14.87-31.05-32.15-32.14-1.89-.12-3.52,1.32-3.64,3.21-.12,1.89,1.32,3.52,3.21,3.64v-.02Z" class="cls-2" data-name="Shape" id="Shape-2"></path>
      <path d="M100.67,132.26h.21c1.81,0,3.32-1.41,3.42-3.22.92-13.82,11.94-24.83,25.76-25.73,1.89-.12,3.33-1.75,3.21-3.64-.12-1.89-1.75-3.33-3.64-3.21-17.29,1.11-31.06,14.88-32.19,32.16-.06.91.25,1.81.86,2.49s1.46,1.1,2.37,1.15Z" class="cls-2" data-name="Shape" id="Shape-3"></path>
      <path d="M185,184.02c24.59,0,44.52-19.93,44.52-44.52s-19.93-44.52-44.52-44.52-44.52,19.93-44.52,44.52c.03,24.57,19.94,44.49,44.52,44.52ZM185,101.84c20.8,0,37.67,16.86,37.67,37.67s-16.86,37.67-37.67,37.67-37.67-16.86-37.67-37.67c.02-20.79,16.87-37.64,37.67-37.67Z" class="cls-2" data-name="Shape" id="Shape-4"></path>
      <path d="M242.08,170.32h-2.4c-7.86.11-15.43,3.03-21.34,8.22-19.19,16.43-47.48,16.43-66.67,0-5.91-5.19-13.48-8.11-21.35-8.22h-2.4c-8.53,0-16.7,3.42-22.68,9.5-5.98,6.08-9.27,14.3-9.13,22.83.17,9.75.54,24.05,1.33,36.78.53,8.35,4.1,16.22,10.04,22.11,2.95,2.95,6.4,5.34,10.19,7.06,3.76,1.72,7.81,2.73,11.94,2.98,15.35.95,35.02,1.48,55.38,1.48s40.02-.52,55.38-1.48c4.12-.25,8.17-1.26,11.92-2.97,3.8-1.72,7.26-4.11,10.22-7.04,5.93-5.92,9.5-13.81,10.03-22.18.79-12.79,1.16-27.05,1.34-36.74.14-8.53-3.15-16.75-9.13-22.83-5.98-6.08-14.15-9.5-22.68-9.5h0ZM265.71,238.98c-.43,6.69-3.28,13-8.03,17.73-2.39,2.36-5.18,4.27-8.24,5.66-2.99,1.37-6.22,2.17-9.5,2.37-15.22.95-34.73,1.47-54.95,1.47s-39.72-.52-54.95-1.47c-3.29-.2-6.52-1-9.52-2.37-3.06-1.38-5.84-3.3-8.22-5.67-4.76-4.71-7.62-11.01-8.04-17.69-.78-12.61-1.14-26.8-1.31-36.48-.11-6.69,2.47-13.15,7.17-17.91,4.69-4.77,11.11-7.45,17.8-7.44h2.4c6.23.12,12.22,2.45,16.89,6.58,21.75,18.62,53.83,18.62,75.57,0,4.67-4.13,10.66-6.46,16.89-6.58h2.4c6.69,0,13.1,2.68,17.79,7.45,4.69,4.77,7.27,11.22,7.16,17.91-.15,9.63-.53,23.77-1.31,36.44h0Z" class="cls-2" data-name="Shape" id="Shape-5"></path>
      <path d="M185,153.2c6.89,0,12.71-5.11,13.58-11.94.87-6.83-3.48-13.25-10.15-14.96v-14.18c0-1.89-1.53-3.42-3.42-3.42s-3.42,1.53-3.42,3.42v14.18c-6.67,1.72-11.02,8.13-10.15,14.96.87,6.83,6.69,11.95,13.58,11.94h0ZM185,132.66c3.78,0,6.85,3.07,6.85,6.85s-3.07,6.85-6.85,6.85-6.85-3.07-6.85-6.85,3.07-6.85,6.85-6.85Z" class="cls-2" data-name="Shape" id="Shape-6"></path>
    </g>
  </g>
</svg>