<svg viewBox="0 0 370 370" xmlns="http://www.w3.org/2000/svg" data-name="Layer 1" id="Layer_1">
  <defs>
    <style>
      .cls-1 {
        fill: #eff;
        stroke: #1e1e1e;
        stroke-miterlimit: 10;
        stroke-width: 3px;
      }

      .cls-2 {
        fill: #c9f1f4;
      }

      .cls-2, .cls-3 {
        stroke-width: 0px;
      }

      .cls-3 {
        fill: #1e1e1e;
      }
    </style>
  </defs>
  <circle r="180.21" cy="185" cx="185" class="cls-2"></circle>
  <circle r="150.93" cy="185" cx="185" class="cls-1"></circle>
  <g>
    <path d="M152.05,227.66c12.38,0,22.44-10.06,22.44-22.44s-10.06-22.44-22.44-22.44-22.44,10.06-22.44,22.44,10.06,22.44,22.44,22.44ZM152.05,188.84c9.03,0,16.34,7.35,16.34,16.34s-7.35,16.34-16.34,16.34-16.34-7.35-16.34-16.34,7.35-16.34,16.34-16.34Z" class="cls-3"></path>
    <path d="M145.04,208.27h3.93v3.93c0,1.68,1.37,3.05,3.05,3.05s3.05-1.37,3.05-3.05v-3.93h3.93c1.68,0,3.05-1.37,3.05-3.05s-1.37-3.05-3.05-3.05h-3.93v-3.93c0-1.68-1.37-3.05-3.05-3.05s-3.05,1.37-3.05,3.05v3.93h-3.93c-1.68,0-3.05,1.37-3.05,3.05s1.37,3.05,3.05,3.05Z" class="cls-3"></path>
    <path d="M198.22,148.38l-12.17-23.75h.3c5.03,0,9.15-4.12,9.15-9.15v-12.81c0-5.03-4.12-9.15-9.15-9.15h-68.67c-5.03,0-9.15,4.12-9.15,9.15v12.81c0,5.03,4.12,9.15,9.15,9.15h.3l-12.17,23.75c-1.52,2.99-2.35,6.37-2.35,9.73v97.03c0,11.77,9.58,21.35,21.35,21.35h54.4c11.77,0,21.35-9.58,21.35-21.35v-97.03c0-3.35-.82-6.74-2.35-9.73ZM114.63,115.47v-12.81c0-1.68,1.37-3.05,3.05-3.05h68.67c1.68,0,3.05,1.37,3.05,3.05v12.81c0,1.68-1.37,3.05-3.05,3.05h-68.67c-1.68,0-3.05-1.37-3.05-3.05ZM111.25,151.15l13.6-26.53h54.34l13.6,26.53c1.1,2.13,1.68,4.54,1.68,6.95v12.9h-84.87v-12.9c0-2.41.58-4.82,1.68-6.95h-.03ZM194.47,233.33h-84.87v-56.23h84.9v56.23h-.03ZM179.22,270.38h-54.37c-8.42,0-15.25-6.83-15.25-15.25v-15.7h84.9v15.7c0,8.42-6.83,15.25-15.25,15.25h-.03Z" class="cls-3"></path>
    <path d="M237.5,271.57c-4.06,0-7.87-1.62-10.67-4.54s-4.27-6.8-4.12-10.86l3.11-77c-10.46-6.62-17.35-21.8-17.35-38.61,0-23.24,13.02-42.14,29.03-42.14s29.03,18.91,29.03,42.14c0,16.8-6.89,31.96-17.35,38.61l3.11,77c.15,4.06-1.31,7.93-4.12,10.86s-6.62,4.54-10.67,4.54ZM237.5,104.53c-12.66,0-22.93,16.16-22.93,36.04,0,15.49,6.34,29.21,15.8,34.18,1.04.55,1.68,1.65,1.62,2.84l-3.2,78.83c-.09,2.41.76,4.67,2.41,6.4,3.32,3.45,9.27,3.45,12.56,0,1.65-1.74,2.53-3.99,2.41-6.4l-3.2-78.83c-.06-1.19.58-2.29,1.62-2.84,9.45-4.97,15.8-18.69,15.8-34.18,0-19.88-10.28-36.04-22.93-36.04h.06Z" class="cls-3"></path>
  </g>
</svg>