<svg viewBox="0 0 370 370" xmlns="http://www.w3.org/2000/svg" data-name="Layer 1" id="Layer_1">
  <defs>
    <style>
      .cls-1 {
        fill: #fef3ff;
        stroke: #1e1e1e;
        stroke-miterlimit: 10;
        stroke-width: 3px;
      }

      .cls-2 {
        fill: #1e1e1e;
      }

      .cls-2, .cls-3 {
        stroke-width: 0px;
      }

      .cls-3 {
        fill: #fdd2ff;
      }
    </style>
  </defs>
  <g>
    <circle r="180.21" cy="185" cx="185" class="cls-3"></circle>
    <circle r="150.93" cy="185" cx="185" class="cls-1"></circle>
  </g>
  <path d="M155.3,202.43c-6.23,0-11.98-2.85-15.72-7.84-1.33-1.77-1.01-4.3.76-5.63,1.77-1.33,4.3-1.01,5.63.76,2.25,2.98,5.63,4.66,9.33,4.66s7.08-1.69,9.33-4.66c1.33-1.77,3.86-2.13,5.63-.76,1.77,1.33,2.13,3.86.76,5.63-3.78,4.99-9.53,7.84-15.72,7.84ZM212.88,189.72c-2.25,2.98-5.63,4.66-9.33,4.66s-7.08-1.69-9.33-4.66c-1.33-1.77-3.86-2.13-5.63-.76-1.77,1.33-2.13,3.86-.76,5.63,3.78,4.99,9.53,7.84,15.72,7.84s11.98-2.85,15.72-7.84c1.33-1.77,1.01-4.3-.76-5.63s-4.3-1.01-5.63.76ZM188.36,231.26c-2.01,1.85-5.35,2.94-8.89,2.94s-6.88-1.09-8.89-2.94c-1.65-1.49-4.18-1.37-5.67.28s-1.37,4.18.28,5.67c3.5,3.18,8.73,4.99,14.27,4.99s10.78-1.81,14.27-4.99c1.65-1.49,1.77-4.02.28-5.67-1.49-1.65-4.02-1.77-5.67-.28ZM284.34,261.98c0,1.65-1.05,3.14-2.61,3.7-12.71,4.74-18.38,18.46-18.46,18.58-.6,1.53-2.09,2.49-3.74,2.49s-3.1-1.01-3.74-2.49c-5.55-13.79-18.3-18.5-18.42-18.54-1.53-.56-2.61-2.01-2.65-3.62-.08-1.65.88-3.18,2.37-3.82,14.52-6.43,18.46-17.93,18.62-18.42.52-1.65,2.05-2.73,3.78-2.77,1.61-.16,3.26,1.05,3.82,2.65,4.5,12.67,18.34,18.38,18.46,18.42,1.53.6,2.53,2.13,2.53,3.78l.04.04ZM271.79,261.82c-3.86-2.57-8.65-6.47-12.26-11.94-2.49,3.7-6.39,8.2-12.26,12.02,3.86,2.53,8.6,6.51,12.38,12.34,2.57-3.9,6.55-8.73,12.14-12.42ZM217.23,264.43v25.73c0,2.21-1.81,4.02-4.02,4.02s-4.02-1.81-4.02-4.02v-21.07c-9.09,4.46-19.22,7-29.76,7h-1.25c-10.78-.2-21.11-3.14-30.32-8.2v22.28c0,2.21-1.81,4.02-4.02,4.02s-4.02-1.81-4.02-4.02v-27.46c-9.45-7.12-17.17-16.73-22.12-28.07-7.8,7.68-11.38,16.41-11.42,16.53-.6,1.53-2.09,2.53-3.74,2.53s-3.14-1.01-3.74-2.53c-7.68-19.1-25.57-25.77-25.73-25.81-1.53-.56-2.61-2.01-2.65-3.66-.04-1.65.88-3.14,2.37-3.82,11.3-5.03,17.97-12.22,21.71-17.77-2.45-8-3.38-14.07-3.42-14.35-7.36-38.96,18.38-66.67,19.46-67.83,4.18-5.15,9.01-9.49,14.11-13.19,4.46-25.09,26.54-43.79,52.15-43.79h5.23c25.69,0,47.81,18.78,52.19,43.95,5.15,3.74,10.05,8.04,14.27,13.23.88.92,26.62,28.63,19.26,67.75-.2,1.25-5.39,34.7-24.57,49.1-.56.44-1.21.64-1.89.72-5.23,11.82-13.67,21.71-24.13,28.71l.04.04ZM208.78,100.26c.84,1.81,1.45,3.58,1.77,5.07,2.73,18.54-7.52,27.18-12.02,30.04-1.41.88-3.02,1.53-4.7,2.05,47.89,18.34,48.33,49.54,48.21,53.28l2.21,32.25c11.9-14.35,15.6-38.08,15.6-38.36,6.63-35.14-17.13-60.84-17.37-61.08-9.33-11.42-22.04-18.62-33.74-23.2l.04-.04ZM134.68,98.45c21.79-11.86,44.75-13.87,46.12-13.95,7.2-.48,12.87,1.17,17.25,3.78,7.84,2.09,17.13,5.39,26.22,10.33-6.39-17.37-23.12-29.55-42.22-29.55h-5.23c-19.02,0-35.71,12.14-42.14,29.43v-.04ZM99.01,184.42s.36,2.33,1.17,5.71c.64-.48,1.45-.76,2.29-.76,1.69-.04,3.26,1.05,3.86,2.65,2.13,5.95,5.67,10.74,9.45,14.56l1.09-15.92c-.16-4.34.36-45.16,73.5-60.64,1.45-.32,2.73-.8,3.86-1.53,4.87-3.06,10.25-9.33,8.4-21.75-.08-.32-3.78-15.44-21.27-14.27-.36,0-42.82,3.78-64.78,30.76-.44.48-24.17,26.18-17.57,61.16v.04ZM121.65,221.37c-5.79-3.54-13.71-9.65-19.18-18.78-3.38,5.51-9.37,12.91-19.22,18.86,5.71,3.46,13.59,9.53,19.38,19.34,3.58-5.83,9.73-13.87,19.02-19.46v.04ZM236.41,226.11l-2.41-35.14v-.56c.08-1.33,1.09-33.33-54.56-49.38-55.57,16-54.52,47.97-54.48,49.42v.52l-1.53,21.91c4.74,3.26,8.56,4.83,8.65,4.87,1.53.6,2.53,2.13,2.53,3.78s-1.05,3.14-2.61,3.74c-2.85,1.09-5.43,2.49-7.76,4.06,9.01,22.84,30.36,38.32,54.12,38.76h1.09c26.02,0,49.22-17.09,56.98-41.94v-.04Z" class="cls-2"></path>
</svg>