<svg viewBox="0 0 370 370" xmlns="http://www.w3.org/2000/svg" data-name="Layer 1" id="Layer_1">
  <defs>
    <style>
      .cls-1 {
        fill: #fff7f3;
        stroke: #1e1e1e;
        stroke-miterlimit: 10;
        stroke-width: 3px;
      }

      .cls-2 {
        fill: #ffe1d2;
      }

      .cls-2, .cls-3 {
        stroke-width: 0px;
      }

      .cls-3 {
        fill: #1e1e1e;
      }
    </style>
  </defs>
  <g>
    <circle r="180.21" cy="185" cx="185" class="cls-2"></circle>
    <circle r="150.93" cy="185" cx="185" class="cls-1"></circle>
  </g>
  <path d="M187.69,153.22c-2.06,2.86-3.27,6.36-3.27,10.15,0,9.6,7.81,17.41,17.41,17.41,3.78,0,7.29-1.22,10.15-3.27l14.59,14.59c.53.53,1.25.83,2,.83s1.47-.3,2-.83l43.11-43.11c6.98-6.98,10.83-16.31,10.83-26.25s-3.85-19.26-10.83-26.25c-6.98-6.98-16.31-10.83-26.25-10.83s-19.26,3.85-26.25,10.83l-18.11,18.11c-1.71-.93-3.67-1.45-5.74-1.45-6.67,0-12.09,5.42-12.09,12.09,0,2.08.53,4.03,1.45,5.74l-8.63,8.63c-.53.53-.83,1.25-.83,2s.3,1.47.83,2l9.63,9.63ZM201.83,175.13c-6.49,0-11.77-5.28-11.77-11.77s5.28-11.77,11.77-11.77,11.77,5.28,11.77,11.77-5.28,11.77-11.77,11.77ZM197.32,118.78c3.55,0,6.44,2.89,6.44,6.44s-2.89,6.44-6.44,6.44-6.44-2.89-6.44-6.44c0-3.55,2.89-6.44,6.44-6.44ZM190.46,135.17c1.95,1.35,4.31,2.14,6.86,2.14,6.67,0,12.09-5.42,12.09-12.09,0-2.55-.79-4.91-2.14-6.86l17.89-17.89c5.92-5.92,13.82-9.18,22.26-9.18,8.43,0,16.34,3.26,22.26,9.18,5.92,5.92,9.18,13.82,9.18,22.26s-3.26,16.34-9.18,22.26l-41.12,41.12-12.59-12.59c2.06-2.86,3.27-6.36,3.27-10.15,0-9.6-7.81-17.41-17.41-17.41-3.78,0-7.29,1.22-10.15,3.27l-7.64-7.64,6.42-6.42ZM94.33,149.51c1.04.28,2.1.42,3.15.42,2.1,0,4.16-.55,6.03-1.62,2.79-1.61,4.69-4.17,5.54-7.04,3.36,2.4,7.47,3.82,11.9,3.82s8.49-1.4,11.84-3.77c.87,3.01,2.84,5.52,5.56,7.1,1.9,1.1,3.98,1.62,6.03,1.62,4.18,0,8.25-2.17,10.49-6.04,1.61-2.8,2.04-6.06,1.21-9.18s-2.84-5.73-5.63-7.34c-2.76-1.59-5.96-2.03-9.03-1.24.04-.55.07-1.11.07-1.67,0-8.21-4.85-15.31-11.83-18.59,2.1-2.18,3.39-5.13,3.39-8.38,0-6.67-5.42-12.09-12.09-12.09s-12.09,5.42-12.09,12.09c0,3.25,1.29,6.21,3.39,8.38-6.98,3.28-11.83,10.38-11.83,18.59,0,.53.03,1.05.07,1.57-3.09-.8-6.3-.36-9.07,1.23-2.8,1.62-4.8,4.22-5.63,7.34s-.41,6.38,1.21,9.18c1.62,2.8,4.22,4.8,7.34,5.63h0ZM144.4,131.49c1.12,0,2.22.29,3.21.87,3.08,1.78,4.14,5.73,2.36,8.8-1.78,3.08-5.73,4.14-8.8,2.36-3.08-1.78-4.14-5.73-2.36-8.8.86-1.49,2.25-2.56,3.91-3,.56-.15,1.12-.22,1.68-.22ZM114.5,97.58c0-3.55,2.89-6.44,6.44-6.44s6.44,2.89,6.44,6.44-2.89,6.44-6.44,6.44-6.44-2.89-6.44-6.44ZM120.95,109.67c8.21,0,14.88,6.68,14.88,14.88s-6.68,14.88-14.88,14.88-14.88-6.68-14.88-14.88,6.68-14.88,14.88-14.88ZM91.24,136.16c.45-1.66,1.51-3.05,3-3.91,1.01-.58,2.12-.86,3.21-.86,2.23,0,4.4,1.16,5.59,3.22,1.78,3.08.72,7.03-2.36,8.8-1.49.86-3.23,1.09-4.89.64-1.66-.45-3.05-1.51-3.91-3-.86-1.49-1.09-3.23-.64-4.89ZM284.22,249.32c-.84-3.12-2.84-5.73-5.63-7.34-2.82-1.63-6.02-1.98-8.95-1.26.05-.59.08-1.18.08-1.78,0-8.22-4.86-15.32-11.85-18.6,2.11-2.18,3.41-5.14,3.41-8.4,0-6.67-5.42-12.09-12.09-12.09s-12.09,5.42-12.09,12.09c0,3.26,1.3,6.23,3.41,8.4-6.99,3.28-11.85,10.38-11.85,18.6,0,.57.03,1.13.08,1.69-3.08-.79-6.28-.35-9.04,1.24-2.8,1.62-4.8,4.22-5.63,7.34-.84,3.12-.41,6.38,1.21,9.18,2.24,3.87,6.31,6.04,10.49,6.04,2.05,0,4.13-.52,6.03-1.62,2.81-1.63,4.73-4.22,5.56-7.12,3.35,2.37,7.43,3.77,11.84,3.77s8.4-1.37,11.73-3.7c.87,3.03,2.84,5.56,5.58,7.15,1.9,1.1,3.98,1.62,6.03,1.62,4.18,0,8.25-2.17,10.49-6.04,1.62-2.8,2.05-6.06,1.21-9.18h0ZM249.19,205.5c3.55,0,6.44,2.89,6.44,6.44s-2.89,6.44-6.44,6.44-6.44-2.89-6.44-6.44,2.89-6.44,6.44-6.44ZM228.97,257.93c-3.08,1.78-7.03.72-8.8-2.36-.86-1.49-1.09-3.23-.64-4.89s1.51-3.05,3-3.91c.99-.57,2.1-.87,3.21-.87.56,0,1.12.07,1.68.22,1.66.45,3.05,1.51,3.91,3,1.78,3.08.72,7.03-2.36,8.8h0ZM249.19,253.82c-8.21,0-14.88-6.68-14.88-14.88s6.68-14.88,14.88-14.88,14.88,6.68,14.88,14.88-6.68,14.88-14.88,14.88ZM278.12,255.67c-1.78,3.08-5.73,4.14-8.8,2.36-3.08-1.78-4.14-5.73-2.36-8.8,1.19-2.07,3.36-3.22,5.59-3.22,1.09,0,2.2.28,3.21.86,1.49.86,2.56,2.25,3,3.91s.22,3.4-.64,4.89ZM233.35,162.78c6.67,0,12.09-5.42,12.09-12.09s-5.42-12.09-12.09-12.09-12.09,5.42-12.09,12.09,5.42,12.09,12.09,12.09ZM233.35,144.25c3.55,0,6.44,2.89,6.44,6.44s-2.89,6.45-6.44,6.45-6.44-2.89-6.44-6.45,2.89-6.44,6.44-6.44ZM147.07,166.21c0,6.67,5.42,12.09,12.09,12.09s12.09-5.42,12.09-12.09-5.42-12.09-12.09-12.09-12.09,5.42-12.09,12.09ZM159.16,159.77c3.55,0,6.44,2.89,6.44,6.44s-2.89,6.44-6.44,6.44-6.44-2.89-6.44-6.44,2.89-6.44,6.44-6.44ZM218.25,197.72c0-6.67-5.42-12.09-12.09-12.09s-12.09,5.42-12.09,12.09,5.42,12.09,12.09,12.09,12.09-5.42,12.09-12.09ZM206.16,204.17c-3.55,0-6.44-2.89-6.44-6.44s2.89-6.44,6.44-6.44,6.44,2.89,6.44,6.44-2.89,6.44-6.44,6.44ZM190.08,216.48c-2.31,0-4.48.65-6.31,1.78l-3.61-3.61c4.37-3.29,7.21-8.52,7.21-14.4,0-9.93-8.08-18-18-18-5.88,0-11.11,2.83-14.4,7.2l-11.39-11.39c-1.1-1.1-2.89-1.1-3.99,0l-43.12,43.11c-6.98,6.98-10.83,16.31-10.83,26.25s3.85,19.26,10.83,26.25c6.98,6.98,16.31,10.83,26.25,10.83,9.94,0,19.26-3.85,26.25-10.83l34.8-34.8c1.84,1.13,4,1.78,6.31,1.78,6.67,0,12.09-5.42,12.09-12.09s-5.42-12.09-12.09-12.09h0ZM169.36,187.9c6.81,0,12.36,5.54,12.36,12.36s-5.54,12.36-12.36,12.36-12.36-5.54-12.36-12.36,5.54-12.36,12.36-12.36ZM144.97,269.69c-5.92,5.92-13.82,9.18-22.26,9.18-8.43,0-16.34-3.26-22.26-9.18-5.92-5.92-9.18-13.82-9.18-22.26s3.26-16.34,9.18-22.26l41.12-41.12,10.66,10.66c-.57,1.75-.88,3.61-.88,5.54,0,9.93,8.08,18,18,18,1.93,0,3.8-.31,5.54-.88l4.87,4.87c-1.13,1.84-1.78,4-1.78,6.31s.65,4.48,1.78,6.31l-34.8,34.8ZM190.08,235.02c-3.55,0-6.44-2.89-6.44-6.44s2.89-6.44,6.44-6.44,6.44,2.89,6.44,6.44-2.89,6.44-6.44,6.44Z" class="cls-3"></path>
</svg>