<svg viewBox="0 0 370 370" xmlns="http://www.w3.org/2000/svg" data-name="Layer 1" id="Layer_1">
  <defs>
    <style>
      .cls-1 {
        fill: #f7f7f7;
        stroke: #1e1e1e;
        stroke-miterlimit: 10;
        stroke-width: 3px;
      }

      .cls-2 {
        fill: #ddd;
      }

      .cls-2, .cls-3 {
        stroke-width: 0px;
      }

      .cls-3 {
        fill: #1e1e1e;
      }
    </style>
  </defs>
  <g>
    <circle r="180.21" cy="185" cx="185" class="cls-2"></circle>
    <circle r="150.93" cy="185" cx="185" class="cls-1"></circle>
  </g>
  <path d="M274.81,102.27c-.09-.71-.25-1.39-.51-2.04,0-.02,0-.04-.01-.06,0,0,0,0,0-.01-.29-.68-.68-1.29-1.12-1.86-.11-.13-.22-.27-.33-.39-.47-.53-.98-1.02-1.58-1.42-.02-.01-.04-.02-.05-.03-.57-.38-1.21-.66-1.87-.89-.17-.06-.33-.11-.5-.15-.7-.19-1.41-.33-2.17-.33h-57.7c-4.55,0-8.24,3.69-8.24,8.24s3.69,8.24,8.24,8.24h37.8l-49.2,49.2c-13.12-10.49-29.27-16.23-46.3-16.23-40.9,0-74.19,33.28-74.19,74.19s33.28,74.19,74.19,74.19,74.19-33.28,74.19-74.19c0-17.02-5.73-33.17-16.23-46.3l49.2-49.2v37.8c0,4.55,3.69,8.24,8.24,8.24s8.24-3.69,8.24-8.24v-57.7c0-.17-.04-.34-.05-.51-.01-.19-.03-.37-.06-.56ZM151.27,276.43c-31.82,0-57.7-25.88-57.7-57.7s25.88-57.7,57.7-57.7c15.4,0,29.91,6,40.81,16.86,10.89,10.93,16.89,25.43,16.89,40.84,0,31.82-25.88,57.7-57.7,57.7Z" class="cls-3"></path>
</svg>