<svg viewBox="0 0 370 370" xmlns="http://www.w3.org/2000/svg" data-name="Layer 1" id="Layer_1">
  <defs>
    <style>
      .cls-1 {
        fill: #f3fcff;
        stroke: #1e1e1e;
        stroke-miterlimit: 10;
        stroke-width: 3px;
      }

      .cls-2 {
        fill: #1e1e1e;
      }

      .cls-2, .cls-3 {
        stroke-width: 0px;
      }

      .cls-3 {
        fill: #d0eefc;
      }
    </style>
  </defs>
  <g>
    <circle r="180.21" cy="185" cx="185" class="cls-3"></circle>
    <circle r="150.93" cy="185" cx="185" class="cls-1"></circle>
  </g>
  <g>
    <path d="M123.96,230.97v24.38h-17.55c-3.23,0-5.85,2.62-5.85,5.85s2.62,5.85,5.85,5.85h17.55v17.94c0,3.23,2.62,5.85,5.85,5.85s5.85-2.62,5.85-5.85v-17.94h17.55c3.23,0,5.85-2.62,5.85-5.85s-2.62-5.85-5.85-5.85h-17.55v-24.36c3.98-.51,7.86-1.32,11.55-2.62-3.36-2.8-6.4-5.94-9.13-9.35-2.67.55-5.43.84-8.26.84-22.58,0-40.95-18.37-40.95-40.95s18.37-40.95,40.95-40.95,40.95,19.9,40.95,40.95c0,6.78-1.81,13.08-4.74,18.71,2.56,3.04,5.68,5.54,9.27,7.34,4.44-7.71,7.17-16.53,7.17-26.05,0-27.13-22.32-52.65-52.65-52.65s-52.65,23.62-52.65,52.65c0,27.03,20.55,49.1,46.8,52.06Z" class="cls-2"></path>
    <path d="M270.99,91.16h-35.1c-3.23,0-5.85,2.62-5.85,5.85s2.62,5.85,5.85,5.85h20.98l-35.88,35.1c-9.01-7.21-20.27-11.7-32.68-11.7-6.13,0-11.92,1.25-17.4,3.19,3.36,2.8,6.4,5.94,9.13,9.35,2.67-.55,5.43-.84,8.26-.84,22.58,0,40.95,18.37,40.95,40.95s-18.37,40.95-40.95,40.95-40.95-19.68-40.95-40.95c0-6.78,1.81-13.08,4.74-18.71-2.56-3.04-5.68-5.54-9.27-7.34-4.44,7.71-7.17,16.53-7.17,26.05,0,27.4,22.91,52.65,52.65,52.65s52.65-23.62,52.65-52.65c0-12.41-4.49-23.67-11.7-32.68l35.88-35.1v20.98c0,3.23,2.62,5.85,5.85,5.85s5.85-2.62,5.85-5.85v-35.1c0-3.2-2.62-5.85-5.85-5.85h0Z" class="cls-2"></path>
  </g>
</svg>