<svg viewBox="0 0 370 370" xmlns="http://www.w3.org/2000/svg" data-name="Layer 1" id="Layer_1">
  <defs>
    <style>
      .cls-1 {
        fill: #f4e1ff;
      }

      .cls-1, .cls-2 {
        stroke-width: 0px;
      }

      .cls-3 {
        fill: #faf3ff;
        stroke: #1e1e1e;
        stroke-miterlimit: 10;
        stroke-width: 3px;
      }

      .cls-2 {
        fill: #1e1e1e;
      }
    </style>
  </defs>
  <circle r="180.21" cy="185" cx="185" class="cls-1"></circle>
  <circle r="150.93" cy="185" cx="185" class="cls-3"></circle>
  <g>
    <path d="M200.67,173.8l-3.64-1.63c-1.45-.65-3.15,0-3.8,1.45-.65,1.45,0,3.15,1.45,3.8l3.64,1.63c.38.17.78.25,1.17.25,1.1,0,2.15-.63,2.63-1.7.65-1.45,0-3.15-1.45-3.8Z" class="cls-2"></path>
    <path d="M176.77,173.63c-.65-1.45-2.35-2.1-3.8-1.45l-3.64,1.63c-1.45.65-2.1,2.35-1.45,3.8.48,1.07,1.53,1.7,2.63,1.7.39,0,.79-.08,1.17-.25l3.64-1.63c1.45-.65,2.1-2.35,1.45-3.8Z" class="cls-2"></path>
    <path d="M272.89,232.9c-.79-1.38-2.55-1.86-3.93-1.07-1.38.79-1.86,2.55-1.07,3.93l6.24,10.89c2.53,4.41,3.07,9.5,1.54,14.34-1.53,4.84-4.92,8.69-9.52,10.84-2.27,1.06-4.68,1.62-7.09,1.69-.04,0-.08,0-.11,0h-1.01c-2.1-.08-4.19-.53-6.21-1.36-4.7-1.94-8.25-5.63-10-10.4l-25.46-69.33,21.13-9.85,13.32,23.22c.79,1.38,2.55,1.86,3.93,1.07,1.38-.79,1.86-2.55,1.07-3.93l-14.63-25.52c-.74-1.3-2.36-1.81-3.71-1.18l-.42.2,1.41-16.15c.57-6.51-1.81-12.83-6.52-17.35l-2.57-2.47c-4.53-20.67-23.01-35.59-44.27-35.59s-39.75,14.93-44.27,35.59l-2.57,2.47c-4.71,4.52-7.08,10.85-6.51,17.35l1.41,16.15-.42-.2c-1.36-.63-2.97-.12-3.71,1.18l-38.05,66.36c-3.29,5.74-4.03,12.64-2.03,18.95,2,6.3,6.58,11.52,12.58,14.32h0c2.92,1.36,6.07,2.09,9.24,2.19.13.02.26.03.4.03h147.91c.13,0,.27-.01.4-.03,3.17-.1,6.32-.83,9.24-2.19,5.99-2.8,10.58-8.01,12.58-14.32,2-6.3,1.26-13.21-2.03-18.95l-6.24-10.89ZM243.11,273.52h-116.22c3.02-2.61,5.38-5.96,6.78-9.78l11.74-31.95,11.76-1.84c1.43-.22,2.8-.63,4.07-1.18,6.33,6.17,14.87,9.67,23.76,9.67s17.43-3.5,23.76-9.67c1.27.56,2.63.96,4.07,1.18l11.76,1.84,11.74,31.95c1.4,3.81,3.76,7.17,6.78,9.78ZM155.38,204.64c2.84,3.39,6.19,6.23,9.91,8.43-.08.26-.12.53-.12.81,0,3.67-1.86,6.92-4.76,8.81-.11.06-.21.12-.31.19-1.14.69-2.43,1.17-3.83,1.38l-8.61,1.34,7.7-20.97ZM214.62,204.64l7.7,20.97-8.61-1.34c-1.39-.22-2.68-.7-3.82-1.38-.1-.07-.21-.14-.32-.2-2.89-1.88-4.75-5.13-4.75-8.8,0-.28-.04-.56-.12-.81,3.72-2.2,7.08-5.04,9.91-8.43ZM199.18,215.76c.43,3.77,2.12,7.15,4.7,9.7-5.16,4.62-11.89,7.22-18.87,7.22s-13.71-2.6-18.87-7.22c2.57-2.54,4.27-5.93,4.7-9.7,4.44,1.74,9.23,2.67,14.18,2.67s9.74-.93,14.18-2.67ZM211.44,188.33c-1.36.63-2,2.2-1.49,3.6l2.31,6.29c-6.15,9.07-16.25,14.45-27.26,14.45s-21.11-5.38-27.26-14.45l2.31-6.29c.52-1.4-.13-2.97-1.49-3.6l-1.88-.88c1.7-4.88,2.37-10.09,1.92-15.25l-.72-8.25,4.64-12.31c.39-1.02.62-2.09.72-3.16,3.33-2.18,6.94-3.83,10.75-4.92,10.47,9,23.1,14.72,36.73,16.63l1.42,3.77-.72,8.25c-.45,5.16.21,10.37,1.92,15.25l-1.88.88ZM232.62,159.79l-1.7,19.46-12.36,5.76c-1.3-3.95-1.79-8.15-1.43-12.3l.78-8.9c.04-.43-.02-.86-.17-1.26l-4.87-12.93c-.62-1.64-.53-3.48.23-5.06.91-1.87,2.6-3.15,4.64-3.52.39-.07.77-.1,1.16-.1,1.64,0,3.2.63,4.42,1.79l4.53,4.35c3.45,3.31,5.18,7.94,4.77,12.7ZM185,110.64c16.36,0,30.84,10.12,36.75,24.88-1.61-.39-3.31-.44-5.01-.14-3.88.69-7.09,3.13-8.81,6.67-1.45,2.99-1.61,6.49-.44,9.59l.88,2.33c-11.79-2.24-22.68-7.62-31.72-15.73-.71-.64-1.69-.88-2.61-.65-4.17,1.03-8.13,2.62-11.83,4.76-.05-.1-.09-.2-.14-.3-1.72-3.55-4.93-5.98-8.81-6.67-1.7-.3-3.4-.25-5.02.14,5.91-14.75,20.41-24.88,36.75-24.88ZM139.08,179.25l-1.7-19.46c-.42-4.76,1.32-9.39,4.77-12.7l4.53-4.35c1.5-1.44,3.53-2.05,5.57-1.69,2.04.37,3.74,1.65,4.64,3.52.76,1.58.85,3.42.23,5.06l-4.87,12.93c-.15.4-.21.84-.17,1.26l.78,8.9c.36,4.15-.13,8.35-1.43,12.3l-1.88-.88-10.47-4.88ZM94.32,260.99c-1.53-4.84-.99-9.94,1.54-14.34l36.74-64.07,17.19,8.02,2,.93s0,0,0,0l1.93.9-25.46,69.33c-1.75,4.77-5.3,8.46-10,10.4-2.02.83-4.11,1.28-6.21,1.36h-1.01s-.08,0-.11,0c-2.41-.07-4.81-.63-7.09-1.69h0c-4.6-2.15-7.99-6-9.52-10.84Z" class="cls-2"></path>
    <path d="M176.85,191.95c-1.12,1.12-1.12,2.95,0,4.07,1.12,1.12,2.95,1.12,4.07,0,1.09-1.09,2.54-1.69,4.07-1.69s2.99.6,4.07,1.69c.56.56,1.3.84,2.04.84s1.47-.28,2.04-.84c1.12-1.12,1.12-2.95,0-4.07-4.49-4.49-11.8-4.49-16.29,0Z" class="cls-2"></path>
    <path d="M258.92,136.01l7.66,4.42-15.38,8.76c-1.38.79-1.86,2.54-1.08,3.93.53.93,1.5,1.45,2.5,1.45.48,0,.97-.12,1.42-.38l19.74-11.24c.9-.51,1.45-1.46,1.45-2.49s-.55-1.99-1.44-2.5l-7.27-4.2,14.1-6.72c1.43-.68,2.04-2.4,1.36-3.84-.68-1.44-2.4-2.04-3.84-1.36l-19.04,9.07c-.96.46-1.6,1.42-1.64,2.48s.51,2.07,1.44,2.61Z" class="cls-2"></path>
    <path d="M236.12,125.11c.53.42,1.16.63,1.79.63.85,0,1.69-.37,2.25-1.09l14.14-17.78c.64-.81.8-1.9.42-2.85-.38-.96-1.25-1.64-2.27-1.79l-8.31-1.19,10.59-11.48c1.08-1.17,1-2.99-.16-4.07s-2.99-1-4.07.16l-14.3,15.5c-.72.79-.95,1.91-.6,2.92s1.25,1.73,2.3,1.88l8.76,1.25-11.02,13.85c-.99,1.24-.78,3.05.46,4.04Z" class="cls-2"></path>
    <path d="M89.36,127.04l14.1,6.72-7.27,4.2c-.89.52-1.44,1.47-1.44,2.5,0,1.03.56,1.98,1.45,2.49l19.74,11.24c.45.26.94.38,1.42.38,1,0,1.97-.52,2.5-1.45.79-1.38.3-3.14-1.08-3.93l-15.38-8.76,7.66-4.42c.93-.53,1.48-1.54,1.44-2.61s-.67-2.02-1.64-2.48l-19.04-9.07c-1.44-.68-3.15-.07-3.84,1.36-.68,1.43-.07,3.15,1.36,3.84Z" class="cls-2"></path>
    <path d="M125.85,101.04l-8.31,1.19c-1.02.15-1.89.83-2.27,1.79-.38.96-.22,2.05.42,2.85l14.14,17.78c.57.71,1.41,1.09,2.25,1.09.63,0,1.26-.2,1.79-.63,1.24-.99,1.45-2.8.46-4.04l-11.02-13.85,8.76-1.25c1.06-.15,1.95-.88,2.3-1.88.36-1.01.13-2.13-.6-2.92l-14.3-15.5c-1.08-1.17-2.9-1.24-4.07-.16-1.17,1.08-1.24,2.9-.16,4.07l10.59,11.48Z" class="cls-2"></path>
    <path d="M262.94,216.67c-.17-.07-.35-.13-.54-.16-.37-.08-.76-.08-1.12,0-.18.03-.36.09-.54.16-.17.07-.34.16-.5.26-.16.11-.31.23-.44.36-.54.53-.84,1.27-.84,2.03,0,.19.02.38.06.56.03.18.09.36.17.54.07.17.16.34.26.5.1.16.22.31.36.44.13.13.28.25.44.36.15.1.32.19.5.26.18.07.36.13.54.17.18.04.37.06.56.06s.38-.02.56-.06c.18-.03.36-.09.54-.17.17-.07.34-.16.5-.26.16-.11.31-.23.44-.36.13-.13.25-.28.36-.44.1-.16.19-.32.26-.5.07-.18.13-.36.16-.54.03-.18.05-.37.05-.56,0-.76-.31-1.5-.84-2.03-.13-.13-.28-.25-.44-.36-.15-.1-.32-.19-.5-.26Z" class="cls-2"></path>
  </g>
</svg>